<svg xmlns="http://www.w3.org/2000/svg" xmlns:xlink="http://www.w3.org/1999/xlink" xmlns:inkscape="http://www.inkscape.org/namespaces/inkscape" version="1.1" width="375" height="375" viewBox="0 0 375 375">
<defs>
<clipPath id="clip_1">
<path transform="matrix(.24,0,0,.24,0,0)" d="M0 0H1562.5V1562.5H0Z" clip-rule="evenodd" data-index="0"></path>
</clipPath>
<clipPath id="clip_2">
<path transform="matrix(.24,0,0,.24,0,0)" d="M0 0H1562.5V1562.5H0Z" clip-rule="evenodd" data-index="1"></path>
</clipPath>
<clipPath id="clip_3">
<path transform="matrix(.24,0,0,.24,0,0)" d="M0 0H1562.5V1562.5H0Z" data-index="2"></path>
</clipPath>
<clipPath id="clip_4">
<path transform="matrix(.24,0,0,.24,0,0)" d="M0 0H1562.5V1562.5H0Z" data-index="3"></path>
</clipPath>
<clipPath id="clip_5">
<path transform="matrix(.24,0,0,.24,0,0)" d="M781.2451-496.3952 1278.4296 .7892456 781.2451 497.9737 284.06068 .7892456 781.2451-496.3952Z" data-index="4"></path>
</clipPath>
<clipPath id="clip_6">
<path transform="matrix(.24,0,0,.24,0,0)" d="M774.6546-869.39419 1647.4895 3.440796 774.6546 876.27578-98.18036 3.440796 774.6546-869.39419Z" data-index="5"></path>
</clipPath>
<clipPath id="clip_7">
<path transform="matrix(.24,0,0,.24,0,0)" d="M0 0H1562.5V1562.5H0Z" data-index="6"></path>
</clipPath>
<clipPath id="clip_8">
<path transform="matrix(.24,0,0,.24,0,0)" d="M0 0H1562.5V1562.5H0Z" data-index="7"></path>
</clipPath>
<clipPath id="clip_9">
<path transform="matrix(.24,0,0,.24,0,0)" d="M781.2451 1066.1047 1278.4296 1563.2892 781.2451 2060.4737 284.06068 1563.2892 781.2451 1066.1047Z" data-index="8"></path>
</clipPath>
<clipPath id="clip_10">
<path transform="matrix(.24,0,0,.24,0,0)" d="M774.6546 693.1058 1647.4895 1565.9407 774.6546 2438.7757-98.18036 1565.9407 774.6546 693.1058Z" data-index="9"></path>
</clipPath>
<clipPath id="clip_11">
<path transform="matrix(.24,0,0,.24,0,0)" d="M0 0H1562.5V1562.5H0Z" data-index="10"></path>
</clipPath>
<clipPath id="clip_12">
<path transform="matrix(.24,0,0,.24,0,0)" d="M0 0H1562.5V1562.5H0Z" data-index="11"></path>
</clipPath>
<clipPath id="clip_13">
<path transform="matrix(.24,0,0,.24,0,0)" d="M16.538004 301.41035 480.5768 765.44918-16.607626 1262.6336-480.64646 798.5948 16.538004 301.41035Z" data-index="12"></path>
</clipPath>
<clipPath id="clip_14">
<path transform="matrix(.24,0,0,.24,0,0)" d="M-113.55752 33.741884 743.80947 891.1088-237.30124 1872.2195-1094.6682 1014.85256-113.55752 33.741884Z" data-index="13"></path>
</clipPath>
<clipPath id="clip_15">
<path transform="matrix(.24,0,0,.24,0,0)" d="M0 0H1562.5V1562.5H0Z" data-index="14"></path>
</clipPath>
<clipPath id="clip_16">
<path transform="matrix(.24,0,0,.24,0,0)" d="M0 0H1562.5V1562.5H0Z" data-index="15"></path>
</clipPath>
<clipPath id="clip_17">
<path transform="matrix(.24,0,0,.24,0,0)" d="M1579.0381 301.41035 2043.0769 765.44918 1545.8925 1262.6336 1081.8536 798.5948 1579.0381 301.41035Z" data-index="16"></path>
</clipPath>
<clipPath id="clip_18">
<path transform="matrix(.24,0,0,.24,0,0)" d="M1448.9426 33.741884 2306.3096 891.1088 1325.199 1872.2195 467.83198 1014.85256 1448.9426 33.741884Z" data-index="17"></path>
</clipPath>
</defs>
<g clip-path="url(#clip_1)">

</g>
<g clip-path="url(#clip_2)">
<path transform="matrix(.75,0,0,.75,0,0)" d="M0 0H500V500H0Z" data-index="19" style="opacity: 1; visibility: hidden; fill: rgb(121, 40, 202); stroke-width: 2px; stroke: rgb(13, 153, 255);"></path>
</g>
<g clip-path="url(#clip_3)">
<g clip-path="url(#clip_4)">
<g clip-path="url(#clip_5)">
<g clip-path="url(#clip_6)">

<path transform="matrix(2.9054116,2.9054116,-2.9054116,2.9054116,185.9171,-208.6546)" d="M65.1 72.14H7C6.77119 72.138378 6.543 72.12565 6.31543 72.10182 6.0878598 72.07798 5.861985 72.04315 5.6378066 71.99733 5.4136278 71.95149 5.1922047 71.89488 4.973538 71.82749 4.754871 71.7601 4.539994 71.68226 4.328907 71.59395 4.1178205 71.50564 3.9115215 71.40728 3.710011 71.29888 3.5085009 71.19049 3.312732 71.07256 3.122704 70.9451 2.9326759 70.817638 2.7492877 70.68125 2.5725396 70.53594 2.3957916 70.390628 2.226519 70.237079 2.0647224 70.07528 1.9029256 69.91348 1.7493696 69.74421 1.6040545 69.56746 1.4587395 69.39071 1.3223525 69.20732 1.1948936 69.017299 1.0674347 68.82727 .94950667 68.6315 .84110948 68.42999 .73271229 68.22848 .6343586 68.02218 .5460483 67.8111 .45773799 67.600009 .3798888 67.385128 .31250067 67.16646 .24511254 66.94779 .18850418 66.72637 .14267557 66.5022 .09684695 66.278018 .062014849 66.05214 .03817923 65.82457 .01434361 65.597 .0016171995 65.36881 0 65.14V7C.001617114 6.77119 .014343442 6.543 .038178989 6.31543 .062014536 6.0878598 .09684657 5.861985 .14267512 5.6378066 .18850367 5.4136278 .24511197 5.1922047 .31250007 4.973538 .37988819 4.754871 .45773734 4.539994 .54604759 4.328907 .6343578 4.1178205 .73271158 3.9115215 .84110876 3.710011 .9495058 3.5085006 1.0674338 3.3127316 1.1948928 3.1227036 1.3223517 2.9326754 1.4587386 2.7492872 1.6040535 2.572539 1.7493687 2.395791 1.9029247 2.2265185 2.0647214 2.0647217 2.2265182 1.9029249 2.3957906 1.7493689 2.5725389 1.6040537 2.7492872 1.4587388 2.9326754 1.3223518 3.1227036 1.1948929 3.3127316 1.067434 3.5085006 .949506 3.710011 .84110888 3.9115215 .7327117 4.1178205 .634358 4.328907 .54604777 4.539994 .45773746 4.754871 .3798883 4.973538 .31250019 5.1922047 .24511208 5.4136278 .18850376 5.6378066 .14267519 5.861985 .09684663 6.0878598 .06201458 6.31543 .03817902 6.543 .014343461 6.77119 .0016171215 7 0H65.1C65.328807 .0016169613 65.55699 .01434315 65.78456 .038178568 66.01213 .062013985 66.23801 .09684591 66.46219 .14267434 66.68636 .18850278 66.90779 .24511099 67.12646 .312499 67.34513 .37988696 67.56001 .45773603 67.771099 .54604628 67.98218 .63435646 68.18848 .7327101 68.38999 .8411072 68.5915 .94950428 68.78727 1.0674322 68.9773 1.1948911 69.16733 1.32235 69.35071 1.4587369 69.52746 1.6040518 69.7042 1.7493669 69.873477 1.9029229 70.03528 2.0647197 70.197078 2.2265166 70.35063 2.3957892 70.49594 2.5725373 70.64126 2.7492853 70.77764 2.9326735 70.905109 3.1227017 71.032558 3.3127297 71.15048 3.5084987 71.25889 3.710009 71.36728 3.9115198 71.46564 4.117819 71.55395 4.3289058 71.64226 4.5399925 71.72011 4.754869 71.7875 4.9735367 71.85489 5.1922037 71.91149 5.4136269 71.95732 5.6378057 72.00315 5.8619844 72.03798 6.087859 72.06182 6.3154299 72.085659 6.543 72.09838 6.77119 72.1 7V65.1C72.09968 65.32965 72.088169 65.55873 72.06546 65.787258 72.042758 66.01578 72.008968 66.242649 71.96408 66.467868 71.9192 66.693088 71.86345 66.91558 71.79684 67.13535 71.73022 67.355129 71.653049 67.57113 71.565319 67.783359 71.47759 67.99558 71.37973 68.20303 71.27172 68.40571 71.16373 68.60837 71.04611 68.80529 70.91886 68.99646 70.79162 69.18763 70.65536 69.37215 70.510089 69.55 70.364818 69.72785 70.21121 69.89821 70.04929 70.06106 69.887378 70.22391 69.717899 70.37847 69.54087 70.52475 69.363849 70.671039 69.18011 70.80834 68.98967 70.936679 68.799228 71.06501 68.602977 71.183757 68.400928 71.29291 68.19888 71.40206 67.992 71.50111 67.780269 71.59004 67.56854 71.67898 67.35298 71.75738 67.1336 71.82525 66.91421 71.89312 66.69203 71.950138 66.467067 71.99629 66.2421 72.04245 66.015438 72.07753 65.78705 72.10154 65.558658 72.12555 65.329639 72.138378 65.1 72.14ZM7 2.46C6.851669 2.4612902 6.7037489 2.4697662 6.5562407 2.4854286 6.4087326 2.501091 6.262331 2.523866 6.117036 2.5537532 5.9717404 2.5836406 5.828236 2.6204997 5.6865227 2.6643306 5.544809 2.7081617 5.405553 2.7587579 5.2687556 2.8161193 5.131958 2.8734806 4.9982626 2.9373375 4.8676698 3.0076895 4.7370769 3.0780414 4.6102015 3.1545573 4.4870426 3.237237 4.363884 3.3199166 4.245023 3.4083708 4.1304595 3.5025995 4.0158956 3.596828 3.906168 3.6963876 3.8012777 3.8012779 3.6963876 3.9061683 3.596828 4.0158956 3.5025993 4.1304595 3.4083706 4.245023 3.3199163 4.363884 3.2372366 4.487043 3.154557 4.6102015 3.0780414 4.7370769 3.0076895 4.8676698 2.9373372 4.998263 2.8734804 5.1319587 2.816119 5.268756 2.7587574 5.4055535 2.708161 5.544809 2.6643303 5.686523 2.6204997 5.828236 2.5836406 5.9717404 2.5537532 6.117036 2.523866 6.262331 2.501091 6.4087326 2.4854286 6.5562407 2.4697662 6.7037489 2.4612902 6.851669 2.46 7V65.1C2.4599944 65.24917 2.467259 65.39798 2.4817937 65.54644 2.4963284 65.6949 2.5180643 65.84229 2.547001 65.98863 2.5759378 66.13497 2.6119378 66.27955 2.6550012 66.42236 2.6980644 66.56518 2.7479857 66.70556 2.804765 66.8435 2.8615444 66.98144 2.9249116 67.11628 2.9948667 67.24803 3.0648218 67.37978 3.1410313 67.50781 3.2234956 67.63211 3.30596 67.75642 3.3942862 67.8764 3.4884742 67.99207 3.582662 68.10774 3.6822634 68.218547 3.787278 68.324489 3.8922928 68.43043 4.0022208 68.531 4.117062 68.6262 4.231903 68.7214 4.351111 68.81077 4.4746849 68.89432 4.5982587 68.97787 4.7256109 69.0552 4.856741 69.126308 4.9878709 69.19742 5.122154 69.26196 5.2595908 69.319957 5.3970277 69.377948 5.5369637 69.42909 5.679398 69.47341 5.8218328 69.51772 5.966088 69.554988 6.1121637 69.585208 6.2582399 69.615428 6.405441 69.63846 6.5537669 69.65429 6.7020928 69.67012 6.850837 69.678699 7 69.68H65.1C65.25 69.68 65.399639 69.67265 65.54892 69.65795 65.6982 69.64325 65.8464 69.62126 65.993518 69.591999 66.14063 69.56274 66.28596 69.52633 66.429508 69.48279 66.573047 69.43925 66.7141 69.38877 66.852687 69.33136 66.991268 69.273967 67.1267 69.20991 67.258998 69.1392 67.39128 69.0685 67.51978 68.99147 67.6445 68.90813 67.76922 68.82479 67.88956 68.73555 68.00551 68.64039 68.12147 68.54523 68.232479 68.44461 68.33854 68.33854 68.44461 68.232479 68.54522 68.12147 68.64038 68.00551 68.73554 67.88956 68.82479 67.76922 68.90813 67.6445 68.99147 67.51978 69.0685 67.39128 69.1392 67.258998 69.20991 67.1267 69.273967 66.991268 69.33136 66.852687 69.38877 66.7141 69.43925 66.573047 69.48279 66.429508 69.52633 66.28596 69.56274 66.14063 69.591999 65.993518 69.62126 65.8464 69.64325 65.6982 69.65795 65.54892 69.67265 65.399639 69.68001 65.25 69.68 65.1V7C69.678699 6.850837 69.67013 6.7020928 69.6543 6.5537669 69.63846 6.405441 69.615428 6.2582399 69.585208 6.112163 69.554988 5.9660875 69.51772 5.8218328 69.47341 5.679398 69.42909 5.5369637 69.377948 5.3970277 69.319957 5.25959 69.26198 5.1221539 69.19743 4.987871 69.12632 4.8567416 69.055217 4.725611 68.97788 4.598259 68.894329 4.4746849 68.810779 4.351111 68.721408 4.2319037 68.6262 4.117062 68.531 4.002221 68.43043 3.892293 68.324489 3.7872782 68.218547 3.6822637 68.10774 3.5826624 67.99207 3.4884744 67.876399 3.3942865 67.75641 3.3059602 67.6321 3.2234958 67.50781 3.1410318 67.37978 3.064822 67.24803 2.9948669 67.11628 2.924912 66.98144 2.8615449 66.84349 2.8047653 66.70556 2.7479859 66.56518 2.6980646 66.422359 2.6550012 66.27954 2.6119383 66.134967 2.5759383 65.988628 2.5470012 65.842288 2.5180646 65.69489 2.4963289 65.54644 2.4817939 65.39798 2.4672592 65.24917 2.4599946 65.1 2.46H7Z" data-index="21"></path>
<path transform="matrix(2.9054116,2.9054116,-2.9054116,2.9054116,185.9171,-208.6546)" d="M55.13 25.9H53.13C53.13 25.69 53.13 25.48 53.13 25.279999L52.760004 18.279999C52.7488 18.111426 52.72206 17.945355 52.679796 17.781785 52.637529 17.618212 52.580465 17.459975 52.5086 17.307076 52.43674 17.154177 52.351327 17.009266 52.25236 16.87234 52.153398 16.735415 52.0426 16.60885 51.919965 16.492646 51.797334 16.376444 51.664995 16.272616 51.52294 16.181162 51.38089 16.08971 51.23159 16.01222 51.075048 15.948689 50.918504 15.88516 50.757425 15.836693 50.591817 15.803288 50.42621 15.769884 50.258939 15.752121 50.090005 15.749999H22.1C21.930647 15.7515 21.762907 15.768725 21.596783 15.801675 21.430659 15.834625 21.269045 15.882725 21.111939 15.945975 20.95483 16.009224 20.80497 16.086524 20.662356 16.177868 20.519742 16.269215 20.386858 16.373019 20.263707 16.489279 20.140553 16.60554 20.029276 16.732232 19.929875 16.869353 19.830473 17.006476 19.744683 17.15164 19.672499 17.304848 19.600316 17.458054 19.542996 17.616635 19.500542 17.780589 19.45809 17.94454 19.431242 18.11101 19.42 18.279999L19.05 25.279999V25.9H17C16.916373 25.90065 16.833607 25.909415 16.751702 25.926293 16.669795 25.943167 16.590306 25.96783 16.513236 26.000288 16.436163 26.032742 16.362975 26.072369 16.293667 26.11917 16.224364 26.165972 16.160262 26.219056 16.10136 26.278422 16.042458 26.337784 15.989879 26.4023 15.9436249 26.471968 15.897369 26.541638 15.858317 26.615138 15.826468 26.692463 15.794618 26.769785 15.770576 26.849467 15.754343 26.931504 15.738111 27.01354 15.729996 27.096373 15.73 27.18V31C15.737626 31.425803 15.790959 31.845803 15.889999 32.26L16.21 33.55C16.235938 33.63561 16.274296 33.715234 16.325079 33.78887 16.375863 33.862508 16.436654 33.926664 16.507454 33.98133 16.578255 34.036 16.6557 34.078584 16.73979 34.10909 16.82388 34.13959 16.910616 34.156564 17 34.16H18.91V50C18.91 50.166776 18.926268 50.33195 18.958806 50.495527 18.991343 50.6591 19.039523 50.81793 19.103344 50.97201 19.167168 51.126096 19.245409 51.272474 19.338067 51.411146 19.430724 51.549818 19.536017 51.67812 19.653948 51.79605 19.771878 51.913984 19.900177 52.019277 20.038849 52.11193 20.17752 52.204587 20.323899 52.28283 20.477984 52.346654 20.632065 52.410474 20.790894 52.458654 20.954468 52.49119 21.118044 52.523729 21.28322 52.539999 21.45 52.54H22.09V55.71C22.089999 55.793539 22.105982 55.873899 22.137953 55.95108 22.169924 56.028268 22.215447 56.096399 22.274523 56.155469 22.333596 56.21454 22.401722 56.260065 22.478907 56.292036 22.556092 56.32401 22.636456 56.339998 22.72 56.34H26.529999C26.614008 56.34001 26.694886 56.324098 26.772629 56.29226 26.85037 56.26042 26.919177 56.215036 26.979046 56.156099 27.038918 56.097166 27.085383 56.029085 27.11844 55.95185 27.151499 55.874616 27.168684 55.794 27.169999 55.71V52.59H45V55.760004C45 55.84354 45.015985 55.9239 45.047956 56.001085 45.079927 56.078268 45.125448 56.146398 45.18452 56.205476 45.24359 56.264547 45.31172 56.310068 45.388906 56.342039 45.466089 56.374013 45.546457 56.39 45.63 56.390005H49.45C49.53441 56.391344 49.615797 56.376329 49.694169 56.34495 49.772535 56.313577 49.841794 56.26828 49.901956 56.20906 49.962118 56.14984 50.0085 56.0813 50.041105 56.00343 50.07371 55.92556 50.09001 55.844419 50.09 55.760004V52.59H50.72C50.88744 52.58739 51.053018 52.56847 51.216733 52.53324 51.380449 52.498014 51.53915 52.44715 51.69284 52.38066 51.846536 52.314168 51.992269 52.233316 52.130037 52.13811 52.267797 52.042909 52.39495 51.935178 52.511499 51.814928 52.628038 51.694665 52.731725 51.564195 52.82256 51.42351 52.9134 51.282827 52.98964 51.134634 53.05128 50.97893 53.11292 50.823225 53.158777 50.663003 53.18885 50.498266 53.21893 50.333524 53.232645 50.167436 53.23 50V34.16H55.13C55.219598 34.157308 55.306589 34.140859 55.390974 34.11065 55.475358 34.080438 55.55302 34.03794 55.623964 33.983167 55.694906 33.928388 55.755666 33.864 55.80624 33.789999 55.85681 33.715997 55.894735 33.635995 55.920003 33.55L56.250005 32.26C56.340696 31.844845 56.390695 31.424845 56.4 31V27.18C56.399999 27.096373 56.391885 27.013539 56.375654 26.931502 56.359418 26.849465 56.335378 26.769785 56.303529 26.692463 56.27168 26.615138 56.232625 26.54164 56.18637 26.47197 56.140119 26.4023 56.08754 26.337784 56.028646 26.278422 55.96974 26.219056 55.905637 26.165972 55.836328 26.11917 55.76702 26.072369 55.693834 26.032742 55.616765 26.000288 55.53969 25.96783 55.4602 25.943165 55.378297 25.92629 55.296388 25.909415 55.213624 25.90065 55.13 25.9M24.64 18.29C24.63999 18.205992 24.655905 18.125115 24.687745 18.04737 24.719582 17.969628 24.764967 17.900822 24.823903 17.840952 24.882838 17.781083 24.95092 17.734618 25.028153 17.701558 25.105385 17.668499 25.186 17.651314 25.269999 17.650002H46.87C46.954866 17.650002 47.0365 17.66624 47.11491 17.698718 47.193319 17.731196 47.262529 17.777441 47.32254 17.837452 47.38255 17.897463 47.428796 17.966673 47.461278 18.045083 47.49376 18.123492 47.51 18.20513 47.51 18.29V19.560002C47.508687 19.644001 47.4915 19.724617 47.458444 19.80185 47.425386 19.879082 47.378919 19.947165 47.319047 20.006098 47.259176 20.065033 47.19037 20.110419 47.112627 20.142258 47.034887 20.174096 46.95401 20.19001 46.87 20.19H25.27C25.186861 20.188712 25.107005 20.17186 25.030432 20.139445 24.953858 20.107029 24.886174 20.061425 24.827378 20.002627 24.768582 19.94383 24.722977 19.876147 24.690562 19.799572 24.658146 19.723 24.641293 19.643143 24.640002 19.560002L24.64 18.29ZM29.72 48.13C29.719998 48.214868 29.703759 48.296506 29.67128 48.374914 29.638804 48.453325 29.592558 48.522535 29.532547 48.582548 29.472535 48.642557 29.403325 48.6888 29.324915 48.72128 29.246508 48.753759 29.16487 48.769998 29.08 48.77H24C23.911475 48.76699 23.82575 48.74992 23.742825 48.71879 23.659903 48.687658 23.584124 48.644098 23.51549 48.588109 23.446856 48.532117 23.388964 48.46663 23.341813 48.39165 23.294663 48.316667 23.260725 48.23612 23.24 48.15L22.86 46.22C22.849808 46.18224 22.844124 46.143808 22.842949 46.10471 22.841776 46.065614 22.845143 46.02691 22.853053 45.9886 22.860962 45.950296 22.873198 45.91342 22.889761 45.87798 22.906323 45.842546 22.926762 45.80951 22.951079 45.778875 22.975396 45.748239 23.002928 45.72083 23.033677 45.696657 23.064425 45.672479 23.097556 45.652189 23.133067 45.63578 23.168576 45.61938 23.205502 45.60731 23.243845 45.599576 23.282189 45.591844 23.320908 45.58865 23.36 45.59H29.08C29.16487 45.59 29.246508 45.60624 29.324915 45.638715 29.403325 45.67119 29.472535 45.717435 29.532547 45.777448 29.592558 45.837457 29.638804 45.906667 29.671282 45.985074 29.703759 46.063486 29.719998 46.145128 29.72 46.23V48.13ZM49.29 46.22 48.9 48.15C48.879514 48.23532 48.846044 48.3152 48.799596 48.389646 48.753145 48.46409 48.696107 48.529264 48.628477 48.585176 48.560846 48.64108 48.486108 48.68484 48.404256 48.71646 48.322404 48.748079 48.23765 48.765924 48.15 48.77H43.06C42.97513 48.769998 42.89349 48.753759 42.81508 48.72128 42.73667 48.6888 42.66746 48.642557 42.607454 48.582548 42.547437 48.522535 42.50119 48.453325 42.468717 48.374914 42.436235 48.296506 42.42 48.214868 42.420003 48.13V46.23C42.420003 46.14513 42.43624 46.06349 42.46872 45.985086 42.501195 45.906675 42.54744 45.837465 42.607454 45.77745 42.667467 45.71744 42.736677 45.671197 42.815088 45.638719 42.893495 45.606245 42.975133 45.590005 43.06 45.59H48.780004C48.81951 45.587839 48.85872 45.590326 48.897634 45.59746 48.936548 45.6046 48.974088 45.616197 49.010248 45.632246 49.046415 45.648298 49.080194 45.668359 49.11159 45.692426 49.142995 45.71649 49.17114 45.7439 49.19603 45.77465 49.22093 45.8054 49.241876 45.838644 49.258874 45.874368 49.27588 45.91009 49.288469 45.947309 49.296636 45.98602 49.304807 46.02473 49.30833 46.063859 49.307207 46.103406 49.306089 46.142953 49.30035 46.181818 49.29 46.22ZM50.68 39.32C50.68 40.51 49.420003 42.5 36.07 42.5 22.72 42.5 21.46 40.5 21.46 39.32V23.37C21.46 23.286612 21.468132 23.204024 21.4844 23.122237 21.50067 23.040448 21.52476 22.961033 21.556672 22.883992 21.588583 22.806948 21.627703 22.733759 21.67403 22.664425 21.720358 22.595089 21.773007 22.53094 21.831974 22.471976 21.890938 22.41301 21.955088 22.360362 22.024424 22.314032 22.09376 22.267704 22.166949 22.228585 22.243992 22.196673 22.321032 22.16476 22.400446 22.140669 22.482234 22.124402 22.56402 22.108134 22.646609 22.1 22.73 22.1H49.41C49.493387 22.1 49.575975 22.108136 49.657758 22.124403 49.73954 22.14067 49.818956 22.16476 49.895998 22.196673 49.973039 22.228583 50.046228 22.267703 50.115564 22.31403 50.1849 22.36036 50.24905 22.413008 50.308019 22.471974 50.36698 22.530938 50.419633 22.595088 50.46596 22.664423 50.51229 22.733759 50.55141 22.806948 50.58332 22.88399 50.61523 22.961031 50.63932 23.040446 50.655588 23.122235 50.67186 23.204024 50.679998 23.286612 50.68 23.37V39.32Z" fill="#ffffff" fill-rule="evenodd" data-index="22"></path>
</g>
</g>
</g>
</g>
<g clip-path="url(#clip_7)">
<g clip-path="url(#clip_8)">
<g clip-path="url(#clip_9)">
<g clip-path="url(#clip_10)">

<path transform="matrix(2.9054116,2.9054116,-2.9054116,2.9054116,185.9171,166.34539)" d="M65.1 72.14H7C6.77119 72.138378 6.543 72.12565 6.31543 72.10182 6.0878598 72.07798 5.861985 72.04315 5.6378066 71.99733 5.4136278 71.95149 5.1922047 71.89488 4.973538 71.82749 4.754871 71.7601 4.539994 71.68226 4.328907 71.59395 4.1178205 71.50564 3.9115215 71.40728 3.710011 71.29888 3.5085009 71.19049 3.312732 71.07256 3.122704 70.9451 2.9326759 70.817638 2.7492877 70.68125 2.5725396 70.53594 2.3957916 70.390628 2.226519 70.237079 2.0647224 70.07528 1.9029256 69.91348 1.7493696 69.74421 1.6040545 69.56746 1.4587395 69.39071 1.3223525 69.20732 1.1948936 69.017299 1.0674347 68.82727 .94950667 68.6315 .84110948 68.42999 .73271229 68.22848 .6343586 68.02218 .5460483 67.8111 .45773799 67.600009 .3798888 67.385128 .31250067 67.16646 .24511254 66.94779 .18850418 66.72637 .14267557 66.5022 .09684695 66.278018 .062014849 66.05214 .03817923 65.82457 .01434361 65.597 .0016171995 65.36881 0 65.14V7C.001617114 6.77119 .014343442 6.543 .038178989 6.31543 .062014536 6.0878598 .09684657 5.861985 .14267512 5.6378066 .18850367 5.4136278 .24511197 5.1922047 .31250007 4.973538 .37988819 4.754871 .45773734 4.539994 .54604759 4.328907 .6343578 4.1178205 .73271158 3.9115215 .84110876 3.710011 .9495058 3.5085006 1.0674338 3.3127316 1.1948928 3.1227036 1.3223517 2.9326754 1.4587386 2.7492872 1.6040535 2.572539 1.7493687 2.395791 1.9029247 2.2265185 2.0647214 2.0647217 2.2265182 1.9029249 2.3957906 1.7493689 2.5725389 1.6040537 2.7492872 1.4587388 2.9326754 1.3223518 3.1227036 1.1948929 3.3127316 1.067434 3.5085006 .949506 3.710011 .84110888 3.9115215 .7327117 4.1178205 .634358 4.328907 .54604777 4.539994 .45773746 4.754871 .3798883 4.973538 .31250019 5.1922047 .24511208 5.4136278 .18850376 5.6378066 .14267519 5.861985 .09684663 6.0878598 .06201458 6.31543 .03817902 6.543 .014343461 6.77119 .0016171215 7 0H65.1C65.328807 .0016169613 65.55699 .01434315 65.78456 .038178568 66.01213 .062013985 66.23801 .09684591 66.46219 .14267434 66.68636 .18850278 66.90779 .24511099 67.12646 .312499 67.34513 .37988696 67.56001 .45773603 67.771099 .54604628 67.98218 .63435646 68.18848 .7327101 68.38999 .8411072 68.5915 .94950428 68.78727 1.0674322 68.9773 1.1948911 69.16733 1.32235 69.35071 1.4587369 69.52746 1.6040518 69.7042 1.7493669 69.873477 1.9029229 70.03528 2.0647197 70.197078 2.2265166 70.35063 2.3957892 70.49594 2.5725373 70.64126 2.7492853 70.77764 2.9326735 70.905109 3.1227017 71.032558 3.3127297 71.15048 3.5084987 71.25889 3.710009 71.36728 3.9115198 71.46564 4.117819 71.55395 4.3289058 71.64226 4.5399925 71.72011 4.754869 71.7875 4.9735367 71.85489 5.1922037 71.91149 5.4136269 71.95732 5.6378057 72.00315 5.8619844 72.03798 6.087859 72.06182 6.3154299 72.085659 6.543 72.09838 6.77119 72.1 7V65.1C72.09968 65.32965 72.088169 65.55873 72.06546 65.787258 72.042758 66.01578 72.008968 66.242649 71.96408 66.467868 71.9192 66.693088 71.86345 66.91558 71.79684 67.13535 71.73022 67.355129 71.653049 67.57113 71.565319 67.783359 71.47759 67.99558 71.37973 68.20303 71.27172 68.40571 71.16373 68.60837 71.04611 68.80529 70.91886 68.99646 70.79162 69.18763 70.65536 69.37215 70.510089 69.55 70.364818 69.72785 70.21121 69.89821 70.04929 70.06106 69.887378 70.22391 69.717899 70.37847 69.54087 70.52475 69.363849 70.671039 69.18011 70.80834 68.98967 70.936679 68.799228 71.06501 68.602977 71.183757 68.400928 71.29291 68.19888 71.40206 67.992 71.50111 67.780269 71.59004 67.56854 71.67898 67.35298 71.75738 67.1336 71.82525 66.91421 71.89312 66.69203 71.950138 66.467067 71.99629 66.2421 72.04245 66.015438 72.07753 65.78705 72.10154 65.558658 72.12555 65.329639 72.138378 65.1 72.14ZM7 2.46C6.851669 2.4612902 6.7037489 2.4697662 6.5562407 2.4854286 6.4087326 2.501091 6.262331 2.523866 6.117036 2.5537532 5.9717404 2.5836406 5.828236 2.6204997 5.6865227 2.6643306 5.544809 2.7081617 5.405553 2.7587579 5.2687556 2.8161193 5.131958 2.8734806 4.9982626 2.9373375 4.8676698 3.0076895 4.7370769 3.0780414 4.6102015 3.1545573 4.4870426 3.237237 4.363884 3.3199166 4.245023 3.4083708 4.1304595 3.5025995 4.0158956 3.596828 3.906168 3.6963876 3.8012777 3.8012779 3.6963876 3.9061683 3.596828 4.0158956 3.5025993 4.1304595 3.4083706 4.245023 3.3199163 4.363884 3.2372366 4.487043 3.154557 4.6102015 3.0780414 4.7370769 3.0076895 4.8676698 2.9373372 4.998263 2.8734804 5.1319587 2.816119 5.268756 2.7587574 5.4055535 2.708161 5.544809 2.6643303 5.686523 2.6204997 5.828236 2.5836406 5.9717404 2.5537532 6.117036 2.523866 6.262331 2.501091 6.4087326 2.4854286 6.5562407 2.4697662 6.7037489 2.4612902 6.851669 2.46 7V65.1C2.4599944 65.24917 2.467259 65.39798 2.4817937 65.54644 2.4963284 65.6949 2.5180643 65.84229 2.547001 65.98863 2.5759378 66.13497 2.6119378 66.27955 2.6550012 66.42236 2.6980644 66.56518 2.7479857 66.70556 2.804765 66.8435 2.8615444 66.98144 2.9249116 67.11628 2.9948667 67.24803 3.0648218 67.37978 3.1410313 67.50781 3.2234956 67.63211 3.30596 67.75642 3.3942862 67.8764 3.4884742 67.99207 3.582662 68.10774 3.6822634 68.218547 3.787278 68.324489 3.8922928 68.43043 4.0022208 68.531 4.117062 68.6262 4.231903 68.7214 4.351111 68.81077 4.4746849 68.89432 4.5982587 68.97787 4.7256109 69.0552 4.856741 69.126308 4.9878709 69.19742 5.122154 69.26196 5.2595908 69.319957 5.3970277 69.377948 5.5369637 69.42909 5.679398 69.47341 5.8218328 69.51772 5.966088 69.554988 6.1121637 69.585208 6.2582399 69.615428 6.405441 69.63846 6.5537669 69.65429 6.7020928 69.67012 6.850837 69.678699 7 69.68H65.1C65.25 69.68 65.399639 69.67265 65.54892 69.65795 65.6982 69.64325 65.8464 69.62126 65.993518 69.591999 66.14063 69.56274 66.28596 69.52633 66.429508 69.48279 66.573047 69.43925 66.7141 69.38877 66.852687 69.33136 66.991268 69.273967 67.1267 69.20991 67.258998 69.1392 67.39128 69.0685 67.51978 68.99147 67.6445 68.90813 67.76922 68.82479 67.88956 68.73555 68.00551 68.64039 68.12147 68.54523 68.232479 68.44461 68.33854 68.33854 68.44461 68.232479 68.54522 68.12147 68.64038 68.00551 68.73554 67.88956 68.82479 67.76922 68.90813 67.6445 68.99147 67.51978 69.0685 67.39128 69.1392 67.258998 69.20991 67.1267 69.273967 66.991268 69.33136 66.852687 69.38877 66.7141 69.43925 66.573047 69.48279 66.429508 69.52633 66.28596 69.56274 66.14063 69.591999 65.993518 69.62126 65.8464 69.64325 65.6982 69.65795 65.54892 69.67265 65.399639 69.68001 65.25 69.68 65.1V7C69.678699 6.850837 69.67013 6.7020928 69.6543 6.5537669 69.63846 6.405441 69.615428 6.2582399 69.585208 6.112163 69.554988 5.9660875 69.51772 5.8218328 69.47341 5.679398 69.42909 5.5369637 69.377948 5.3970277 69.319957 5.25959 69.26198 5.1221539 69.19743 4.987871 69.12632 4.8567416 69.055217 4.725611 68.97788 4.598259 68.894329 4.4746849 68.810779 4.351111 68.721408 4.2319037 68.6262 4.117062 68.531 4.002221 68.43043 3.892293 68.324489 3.7872782 68.218547 3.6822637 68.10774 3.5826624 67.99207 3.4884744 67.876399 3.3942865 67.75641 3.3059602 67.6321 3.2234958 67.50781 3.1410318 67.37978 3.064822 67.24803 2.9948669 67.11628 2.924912 66.98144 2.8615449 66.84349 2.8047653 66.70556 2.7479859 66.56518 2.6980646 66.422359 2.6550012 66.27954 2.6119383 66.134967 2.5759383 65.988628 2.5470012 65.842288 2.5180646 65.69489 2.4963289 65.54644 2.4817939 65.39798 2.4672592 65.24917 2.4599946 65.1 2.46H7Z" data-index="24"></path>
<path transform="matrix(2.9054116,2.9054116,-2.9054116,2.9054116,185.9171,166.34539)" d="M55.13 25.9H53.13C53.13 25.69 53.13 25.48 53.13 25.279999L52.760004 18.279999C52.7488 18.111426 52.72206 17.945355 52.679796 17.781785 52.637529 17.618212 52.580465 17.459975 52.5086 17.307076 52.43674 17.154177 52.351327 17.009266 52.25236 16.87234 52.153398 16.735415 52.0426 16.60885 51.919965 16.492646 51.797334 16.376444 51.664995 16.272616 51.52294 16.181162 51.38089 16.08971 51.23159 16.01222 51.075048 15.948689 50.918504 15.88516 50.757425 15.836693 50.591817 15.803288 50.42621 15.769884 50.258939 15.752121 50.090005 15.749999H22.1C21.930647 15.7515 21.762907 15.768725 21.596783 15.801675 21.430659 15.834625 21.269045 15.882725 21.111939 15.945975 20.95483 16.009224 20.80497 16.086524 20.662356 16.177868 20.519742 16.269215 20.386858 16.373019 20.263707 16.489279 20.140553 16.60554 20.029276 16.732232 19.929875 16.869353 19.830473 17.006476 19.744683 17.15164 19.672499 17.304848 19.600316 17.458054 19.542996 17.616635 19.500542 17.780589 19.45809 17.94454 19.431242 18.11101 19.42 18.279999L19.05 25.279999V25.9H17C16.916373 25.90065 16.833607 25.909415 16.751702 25.926293 16.669795 25.943167 16.590306 25.96783 16.513236 26.000288 16.436163 26.032742 16.362975 26.072369 16.293667 26.11917 16.224364 26.165972 16.160262 26.219056 16.10136 26.278422 16.042458 26.337784 15.989879 26.4023 15.9436249 26.471968 15.897369 26.541638 15.858317 26.615138 15.826468 26.692463 15.794618 26.769785 15.770576 26.849467 15.754343 26.931504 15.738111 27.01354 15.729996 27.096373 15.73 27.18V31C15.737626 31.425803 15.790959 31.845803 15.889999 32.26L16.21 33.55C16.235938 33.63561 16.274296 33.715234 16.325079 33.78887 16.375863 33.862508 16.436654 33.926664 16.507454 33.98133 16.578255 34.036 16.6557 34.078584 16.73979 34.10909 16.82388 34.13959 16.910616 34.156564 17 34.16H18.91V50C18.91 50.166776 18.926268 50.33195 18.958806 50.495527 18.991343 50.6591 19.039523 50.81793 19.103344 50.97201 19.167168 51.126096 19.245409 51.272474 19.338067 51.411146 19.430724 51.549818 19.536017 51.67812 19.653948 51.79605 19.771878 51.913984 19.900177 52.019277 20.038849 52.11193 20.17752 52.204587 20.323899 52.28283 20.477984 52.346654 20.632065 52.410474 20.790894 52.458654 20.954468 52.49119 21.118044 52.523729 21.28322 52.539999 21.45 52.54H22.09V55.71C22.089999 55.793539 22.105982 55.873899 22.137953 55.95108 22.169924 56.028268 22.215447 56.096399 22.274523 56.155469 22.333596 56.21454 22.401722 56.260065 22.478907 56.292036 22.556092 56.32401 22.636456 56.339998 22.72 56.34H26.529999C26.614008 56.34001 26.694886 56.324098 26.772629 56.29226 26.85037 56.26042 26.919177 56.215036 26.979046 56.156099 27.038918 56.097166 27.085383 56.029085 27.11844 55.95185 27.151499 55.874616 27.168684 55.794 27.169999 55.71V52.59H45V55.760004C45 55.84354 45.015985 55.9239 45.047956 56.001085 45.079927 56.078268 45.125448 56.146398 45.18452 56.205476 45.24359 56.264547 45.31172 56.310068 45.388906 56.342039 45.466089 56.374013 45.546457 56.39 45.63 56.390005H49.45C49.53441 56.391344 49.615797 56.376329 49.694169 56.34495 49.772535 56.313577 49.841794 56.26828 49.901956 56.20906 49.962118 56.14984 50.0085 56.0813 50.041105 56.00343 50.07371 55.92556 50.09001 55.844419 50.09 55.760004V52.59H50.72C50.88744 52.58739 51.053018 52.56847 51.216733 52.53324 51.380449 52.498014 51.53915 52.44715 51.69284 52.38066 51.846536 52.314168 51.992269 52.233316 52.130037 52.13811 52.267797 52.042909 52.39495 51.935178 52.511499 51.814928 52.628038 51.694665 52.731725 51.564195 52.82256 51.42351 52.9134 51.282827 52.98964 51.134634 53.05128 50.97893 53.11292 50.823225 53.158777 50.663003 53.18885 50.498266 53.21893 50.333524 53.232645 50.167436 53.23 50V34.16H55.13C55.219598 34.157308 55.306589 34.140859 55.390974 34.11065 55.475358 34.080438 55.55302 34.03794 55.623964 33.983167 55.694906 33.928388 55.755666 33.864 55.80624 33.789999 55.85681 33.715997 55.894735 33.635995 55.920003 33.55L56.250005 32.26C56.340696 31.844845 56.390695 31.424845 56.4 31V27.18C56.399999 27.096373 56.391885 27.013539 56.375654 26.931502 56.359418 26.849465 56.335378 26.769785 56.303529 26.692463 56.27168 26.615138 56.232625 26.54164 56.18637 26.47197 56.140119 26.4023 56.08754 26.337784 56.028646 26.278422 55.96974 26.219056 55.905637 26.165972 55.836328 26.11917 55.76702 26.072369 55.693834 26.032742 55.616765 26.000288 55.53969 25.96783 55.4602 25.943165 55.378297 25.92629 55.296388 25.909415 55.213624 25.90065 55.13 25.9M24.64 18.29C24.63999 18.205992 24.655905 18.125115 24.687745 18.04737 24.719582 17.969628 24.764967 17.900822 24.823903 17.840952 24.882838 17.781083 24.95092 17.734618 25.028153 17.701558 25.105385 17.668499 25.186 17.651314 25.269999 17.650002H46.87C46.954866 17.650002 47.0365 17.66624 47.11491 17.698718 47.193319 17.731196 47.262529 17.777441 47.32254 17.837452 47.38255 17.897463 47.428796 17.966673 47.461278 18.045083 47.49376 18.123492 47.51 18.20513 47.51 18.29V19.560002C47.508687 19.644001 47.4915 19.724617 47.458444 19.80185 47.425386 19.879082 47.378919 19.947165 47.319047 20.006098 47.259176 20.065033 47.19037 20.110419 47.112627 20.142258 47.034887 20.174096 46.95401 20.19001 46.87 20.19H25.27C25.186861 20.188712 25.107005 20.17186 25.030432 20.139445 24.953858 20.107029 24.886174 20.061425 24.827378 20.002627 24.768582 19.94383 24.722977 19.876147 24.690562 19.799572 24.658146 19.723 24.641293 19.643143 24.640002 19.560002L24.64 18.29ZM29.72 48.13C29.719998 48.214868 29.703759 48.296506 29.67128 48.374914 29.638804 48.453325 29.592558 48.522535 29.532547 48.582548 29.472535 48.642557 29.403325 48.6888 29.324915 48.72128 29.246508 48.753759 29.16487 48.769998 29.08 48.77H24C23.911475 48.76699 23.82575 48.74992 23.742825 48.71879 23.659903 48.687658 23.584124 48.644098 23.51549 48.588109 23.446856 48.532117 23.388964 48.46663 23.341813 48.39165 23.294663 48.316667 23.260725 48.23612 23.24 48.15L22.86 46.22C22.849808 46.18224 22.844124 46.143808 22.842949 46.10471 22.841776 46.065614 22.845143 46.02691 22.853053 45.9886 22.860962 45.950296 22.873198 45.91342 22.889761 45.87798 22.906323 45.842546 22.926762 45.80951 22.951079 45.778875 22.975396 45.748239 23.002928 45.72083 23.033677 45.696657 23.064425 45.672479 23.097556 45.652189 23.133067 45.63578 23.168576 45.61938 23.205502 45.60731 23.243845 45.599576 23.282189 45.591844 23.320908 45.58865 23.36 45.59H29.08C29.16487 45.59 29.246508 45.60624 29.324915 45.638715 29.403325 45.67119 29.472535 45.717435 29.532547 45.777448 29.592558 45.837457 29.638804 45.906667 29.671282 45.985074 29.703759 46.063486 29.719998 46.145128 29.72 46.23V48.13ZM49.29 46.22 48.9 48.15C48.879514 48.23532 48.846044 48.3152 48.799596 48.389646 48.753145 48.46409 48.696107 48.529264 48.628477 48.585176 48.560846 48.64108 48.486108 48.68484 48.404256 48.71646 48.322404 48.748079 48.23765 48.765924 48.15 48.77H43.06C42.97513 48.769998 42.89349 48.753759 42.81508 48.72128 42.73667 48.6888 42.66746 48.642557 42.607454 48.582548 42.547437 48.522535 42.50119 48.453325 42.468717 48.374914 42.436235 48.296506 42.42 48.214868 42.420003 48.13V46.23C42.420003 46.14513 42.43624 46.06349 42.46872 45.985086 42.501195 45.906675 42.54744 45.837465 42.607454 45.77745 42.667467 45.71744 42.736677 45.671197 42.815088 45.638719 42.893495 45.606245 42.975133 45.590005 43.06 45.59H48.780004C48.81951 45.587839 48.85872 45.590326 48.897634 45.59746 48.936548 45.6046 48.974088 45.616197 49.010248 45.632246 49.046415 45.648298 49.080194 45.668359 49.11159 45.692426 49.142995 45.71649 49.17114 45.7439 49.19603 45.77465 49.22093 45.8054 49.241876 45.838644 49.258874 45.874368 49.27588 45.91009 49.288469 45.947309 49.296636 45.98602 49.304807 46.02473 49.30833 46.063859 49.307207 46.103406 49.306089 46.142953 49.30035 46.181818 49.29 46.22ZM50.68 39.32C50.68 40.51 49.420003 42.5 36.07 42.5 22.72 42.5 21.46 40.5 21.46 39.32V23.37C21.46 23.286612 21.468132 23.204024 21.4844 23.122237 21.50067 23.040448 21.52476 22.961033 21.556672 22.883992 21.588583 22.806948 21.627703 22.733759 21.67403 22.664425 21.720358 22.595089 21.773007 22.53094 21.831974 22.471976 21.890938 22.41301 21.955088 22.360362 22.024424 22.314032 22.09376 22.267704 22.166949 22.228585 22.243992 22.196673 22.321032 22.16476 22.400446 22.140669 22.482234 22.124402 22.56402 22.108134 22.646609 22.1 22.73 22.1H49.41C49.493387 22.1 49.575975 22.108136 49.657758 22.124403 49.73954 22.14067 49.818956 22.16476 49.895998 22.196673 49.973039 22.228583 50.046228 22.267703 50.115564 22.31403 50.1849 22.36036 50.24905 22.413008 50.308019 22.471974 50.36698 22.530938 50.419633 22.595088 50.46596 22.664423 50.51229 22.733759 50.55141 22.806948 50.58332 22.88399 50.61523 22.961031 50.63932 23.040446 50.655588 23.122235 50.67186 23.204024 50.679998 23.286612 50.68 23.37V39.32Z" fill="#ffffff" fill-rule="evenodd" data-index="25" style="opacity: 1; visibility: visible;"></path>
</g>
</g>
</g>
</g>
<g clip-path="url(#clip_11)">
<g clip-path="url(#clip_12)">
<g clip-path="url(#clip_13)">
<g clip-path="url(#clip_14)">

<path transform="matrix(.3326852,.3326852,-.3326852,.3326852,-27.252978,8.098876)" d="M406.1213 275.24873 212.75135 275.25373C178.57186 275.33815 178.66187 243.38152 178.5673 232.79294 178.48291 198.9848 185.29901 163.00766 195.59642 132.07544 204.17423 106.70122 218.37239 75.80272 309.39134 75.844768 400.41044 75.87868 414.63377 106.65884 423.1457 131.99452 433.65266 162.92021 440.21434 199.01335 440.29423 232.82117 440.19285 243.40818 440.29924 275.35859 406.1213 275.24967V275.24873ZM371.97377 314.70576C372.05818 305.4187 379.7347 297.86915 389.02348 297.76344 398.4961 297.84785 406.04737 305.34037 406.1529 314.6289 406.25428 323.91767 398.5775 331.4672 389.10484 331.38529 379.6305 331.48667 372.0791 323.99433 371.97373 314.70576H371.97377ZM229.72695 331.4971C220.43837 331.59849 212.70322 323.9202 212.78327 314.6333 212.86766 305.34608 220.35866 297.79466 229.83112 297.87626 239.30548 297.77488 246.8552 305.4535 246.96242 314.5563 246.87802 324.0291 239.19992 331.57868 229.72695 331.4971ZM474.3837 264.6924C474.4176 196.52069 448.09877 103.23132 423.04963 78.495578 395.9735 51.885236 337.84474 50.454717 309.42326 50.581369 280.81773 50.496969 222.6651 51.874929 195.68442 78.76394 170.58225 103.252597 144.51432 196.64788 144.48374 264.8194 144.56813 297.69844 144.46704 353.98078 178.63553 354.08967L201.48497 353.91246 172.951 410.13587 229.9767 410.23725 241.235 354.05067 377.765 353.94929 389.16889 410.14549 446.01 410.06108 417.51676 353.90336 440.36433 353.91535C474.35807 353.83094 474.28443 297.73857 474.38389 264.67549" fill="#ffffff" data-index="27" style="opacity: 1;"></path>
</g>
</g>
</g>
</g>
<g clip-path="url(#clip_15)">
<g clip-path="url(#clip_16)">
<g clip-path="url(#clip_17)">
<g clip-path="url(#clip_18)">

<path transform="matrix(.3326852,.3326852,-.3326852,.3326852,347.74705,8.098876)" d="M406.1213 275.24873 212.75135 275.25373C178.57186 275.33815 178.66187 243.38152 178.5673 232.79294 178.48291 198.9848 185.29901 163.00766 195.59642 132.07544 204.17423 106.70122 218.37239 75.80272 309.39134 75.844768 400.41044 75.87868 414.63377 106.65884 423.1457 131.99452 433.65266 162.92021 440.21434 199.01335 440.29423 232.82117 440.19285 243.40818 440.29924 275.35859 406.1213 275.24967V275.24873ZM371.97377 314.70576C372.05818 305.4187 379.7347 297.86915 389.02348 297.76344 398.4961 297.84785 406.04737 305.34037 406.1529 314.6289 406.25428 323.91767 398.5775 331.4672 389.10484 331.38529 379.6305 331.48667 372.0791 323.99433 371.97373 314.70576H371.97377ZM229.72695 331.4971C220.43837 331.59849 212.70322 323.9202 212.78327 314.6333 212.86766 305.34608 220.35866 297.79466 229.83112 297.87626 239.30548 297.77488 246.8552 305.4535 246.96242 314.5563 246.87802 324.0291 239.19992 331.57868 229.72695 331.4971ZM474.3837 264.6924C474.4176 196.52069 448.09877 103.23132 423.04963 78.495578 395.9735 51.885236 337.84474 50.454717 309.42326 50.581369 280.81773 50.496969 222.6651 51.874929 195.68442 78.76394 170.58225 103.252597 144.51432 196.64788 144.48374 264.8194 144.56813 297.69844 144.46704 353.98078 178.63553 354.08967L201.48497 353.91246 172.951 410.13587 229.9767 410.23725 241.235 354.05067 377.765 353.94929 389.16889 410.14549 446.01 410.06108 417.51676 353.90336 440.36433 353.91535C474.35807 353.83094 474.28443 297.73857 474.38389 264.67549" fill="#ffffff" data-index="29" style="opacity: 1;"></path>
</g>
</g>
</g>
</g>

<path transform="matrix(1,0,0,-1,0,383.03999)" d="M-115.164157 80.37584H115.164157V310.70417H-115.164157Z" fill-opacity="0" data-index="31" style="opacity: 1; stroke-width: 2px; stroke: rgb(13, 153, 255); visibility: hidden;"></path>

<path transform="matrix(1,0,0,-1,0,383.03999)" d="M68.36467-111.095348H306.6353V127.175319H68.36467Z" fill-opacity="0" data-index="33" style="opacity: 1; stroke-width: 2px; stroke: rgb(13, 153, 255); visibility: hidden;"></path>
</svg>